Coordinates
version=1
nRows=7
nColumns=40
inDegrees=yes

Units are S.I. units (second, meters, Newtons, ...)
Angles are in degrees.

endheader
time	pelvis_tilt	pelvis_list	pelvis_rotation	pelvis_tx	pelvis_ty	pelvis_tz	hip_flexion_r	hip_adduction_r	hip_rotation_r	knee_angle_r	knee_angle_r_beta	ankle_angle_r	subtalar_angle_r	mtp_angle_r	hip_flexion_l	hip_adduction_l	hip_rotation_l	knee_angle_l	knee_angle_l_beta	ankle_angle_l	subtalar_angle_l	mtp_angle_l	lumbar_extension	lumbar_bending	lumbar_rotation	arm_flex_r	arm_add_r	arm_rot_r	elbow_flex_r	pro_sup_r	wrist_flex_r	wrist_dev_r	arm_flex_l	arm_add_l	arm_rot_l	elbow_flex_l	pro_sup_l	wrist_flex_l	wrist_dev_l
     17.86250000	     -3.71340142	     -5.46216766	     -1.59625918	      1.05295583	      0.92465600	      0.49170146	     18.75611641	      3.10751524	    -12.16750206	     20.25057620	     20.25057620	      7.16508550	     -0.47680258	     -4.12813262	     12.93077179	    -14.16086692	     -4.93588964	     43.93051730	     43.93051730	     13.62983191	    -17.93434453	      2.86820266	     -9.81304199	      6.64317436	      2.63597758	      7.10073833	    -14.39742293	     -4.17231289	     37.13532902	     45.87221580	      0.00000000	      0.00000000	      6.88910925	    -10.66983953	     -4.56216424	     50.28799333	     46.74385008	      0.00000000	      0.00000000
     17.87600000	     -3.56190345	     -5.58880117	     -1.19447036	      1.05349590	      0.92521405	      0.49453935	     18.05798203	      3.35454905	    -12.58386384	     20.06725714	     20.06725714	      7.60634328	     -0.32355111	     -4.20596158	     14.83495961	    -14.63576053	     -3.85899754	     47.49556107	     47.49556107	     12.37284708	    -18.22671479	      3.13841868	     -9.93809097	      6.75208540	      2.85001611	      7.78485093	    -14.67690793	     -4.04818561	     37.74468753	     45.84528835	      0.00000000	      0.00000000	      6.52714771	    -10.58895661	     -4.61269770	     49.88703858	     46.73927886	      0.00000000	      0.00000000
     17.88950000	     -3.51294571	     -5.56449890	     -0.78572906	      1.05367585	      0.92565430	      0.49695528	     17.53163692	      3.35232257	    -13.19081880	     19.98218139	     19.98218139	      8.11228196	      0.28915343	     -4.20265316	     17.01525082	    -14.72815054	     -2.59126061	     51.08272456	     51.08272456	     12.62218227	    -18.14206683	      7.32722500	     -9.98931085	      6.73880575	      3.10006000	      7.69935785	    -15.47458164	     -2.52413507	     40.56771086	     45.64758821	      0.00000000	      0.00000000	      6.60341567	    -10.23827394	     -5.45594081	     48.33092886	     46.78684917	      0.00000000	      0.00000000
     17.90300000	     -3.39880905	     -5.61351956	     -0.39070554	      1.05377327	      0.92617635	      0.49935777	     16.90236664	      3.50268793	    -13.57963960	     19.79584911	     19.79584911	      8.45128636	      0.45628207	     -4.27098672	     18.88561542	    -14.98558290	     -1.70986355	     53.86150017	     53.86150017	     11.51852019	    -18.25327328	      7.42623063	    -10.12182113	      6.77103311	      3.27721750	      8.55140825	    -15.79361446	     -2.55382021	     41.07735092	     45.63568961	      0.00000000	      0.00000000	      6.21476897	    -10.26382944	     -5.47211669	     47.95724806	     46.77888121	      0.00000000	      0.00000000
     17.91650000	     -3.35320698	     -5.62409659	     -0.00762860	      1.05365917	      0.92662320	      0.50153756	     16.35204856	      3.59617295	    -14.00747755	     19.59521947	     19.59521947	      8.79473264	      0.73188204	     -4.35237060	     20.75795820	    -15.15819702	     -0.95809246	     56.15083604	     56.15083604	     10.68619694	    -18.27460841	      7.66947371	    -10.19169402	      6.77064178	      3.41277991	      9.41967812	    -16.14568436	     -2.57875073	     41.72030006	     45.61844406	      0.00000000	      0.00000000	      5.80307647	    -10.31900975	     -5.53738586	     47.46769279	     46.77440177	      0.00000000	      0.00000000
     17.93000000	     -3.35819524	     -5.56478357	      0.37700243	      1.05350193	      0.92709159	      0.50345778	     15.84131124	      3.57596562	    -14.55656417	     19.38231806	     19.38231806	      9.16250965	      1.25017070	     -4.43366417	     22.58029900	    -15.23154663	     -0.39250530	     57.89124977	     57.89124977	     10.25514813	    -18.18519274	      8.31687595	    -10.16057933	      6.76021697	      3.42656473	     10.14881265	    -16.42856467	     -2.47494398	     42.69719678	     45.58101810	      0.00000000	      0.00000000	      5.31136426	    -10.38396617	     -5.73914133	     46.64089828	     46.77764941	      0.00000000	      0.00000000
     17.94350000	     -3.30308634	     -5.53656140	      0.72787987	      1.05321021	      0.92762644	      0.50532231	     15.31066803	      3.61452188	    -14.97496905	     19.20972713	     19.20972713	      9.42988616	      1.59102861	     -4.45202550	     24.20797047	    -15.36041327	     -0.01327017	     59.02467656	     59.02467656	      9.98246757	    -18.17281906	      8.71342170	    -10.27210000	      6.68183051	      3.65499064	     10.95290699	    -16.89683060	     -2.44587893	     43.42989737	     45.55759310	      0.00000000	      0.00000000	      4.92967617	    -10.37399540	     -5.90634668	     46.03924187	     46.78198031	      0.00000000	      0.00000000
